#!OML:ASF H:\Terrain\Patient Classification 1\Terrain2\Thursday\justin.ASF
:FULLY-SPECIFIED
:DEGREES
3022
root 8.14054 17.5324 -0.917538 1982.52 164.223 537.215
lowerback 6.01142 1.27721 -0.107227
upperback 1.2775 1.73167 1.43341
thorax -2.1009 0.86856 1.40028
lowerneck -11.342 -4.84649 -11.565
upperneck 39.0676 -6.84548 7.92977
head 16.7625 -3.42416 4.46759
rclavicle 3.97569e-016 -9.93923e-016
rhumerus -27.7967 1.0358 -89.1176
rradius 39.0292
rwrist -13.9831
rhand -20.059 8.88027
rfingers 7.12502
rthumb 6.28287 -21.0065
lclavicle 3.97569e-016 -9.93923e-016
lhumerus -38.9081 4.68618 82.0976
lradius 28.106
lwrist 0.411538
lhand -20.4152 22.8025
lfingers 7.12502
lthumb 5.93901 52.6993
rfemur -17.2274 -11.475 27.7841
rtibia 36.9414
rfoot -19.9411 -9.37907
rtoes 8.42015
lfemur -7.7096 8.95018 -17.3014
ltibia 33.7651
lfoot -18.9572 10.861
ltoes -15.5897
3023
root 8.13493 17.5357 -0.904218 1982.39 164.808 536.898
lowerback 6.23457 1.20661 0.214227
upperback 1.29566 1.6626 1.53743
thorax -2.19889 0.83261 1.32788
lowerneck -11.7439 -4.83539 -11.351
upperneck 39.2497 -6.78802 7.7179
head 16.9323 -3.39521 4.3458
rclavicle -2.8128e-014 -3.97569e-015
rhumerus -27.8947 1.47862 -89.19
rradius 39.1216
rwrist -13.9314
rhand -19.6805 8.25829
rfingers 7.12502
rthumb 6.64821 -21.6174
lclavicle -2.8128e-014 -3.97569e-015
lhumerus -38.6756 5.05076 81.8865
lradius 28.214
lwrist 0.557352
lhand -20.4029 22.028
lfingers 7.12502
lthumb 5.95086 51.9244
rfemur -16.8374 -10.6937 28.1529
rtibia 36.4036
rfoot -19.681 -9.53934
rtoes 8.53987
lfemur -7.77026 9.14557 -16.8634
ltibia 34.2665
lfoot -18.8282 11.0395
ltoes -18.1297
3024
root 8.12519 17.5326 -0.892952 1982.12 165.418 536.657
lowerback 6.57811 1.17239 0.464764
upperback 1.38493 1.63865 1.60637
thorax -2.29299 0.819173 1.25419
lowerneck -12.3518 -4.88756 -11.1601
upperneck 39.7298 -6.79705 7.46949
head 17.3362 -3.40253 4.21271
rclavicle 1.23371e-014 -4.87022e-015
rhumerus -27.766 1.83943 -89.2486
rradius 38.9704
rwrist -13.8518
rhand -19.808 8.31888
rfingers 7.12502
rthumb 6.52522 -21.5606
lclavicle 1.23371e-014 -4.87022e-015
lhumerus -38.4154 5.26344 81.7117
lradius 28.4547
lwrist 0.456525
lhand -19.6726 22.3484
lfingers 7.12502
lthumb 6.65588 52.2238
rfemur -16.3102 -10.0842 28.4408
rtibia 35.9494
rfoot -19.5425 -9.5254
rtoes 8.95693
lfemur -7.66408 9.22876 -16.5049
ltibia 34.8051
lfoot -18.6557 11.3136
ltoes -20.0449
3025
root 8.11746 17.5305 -0.879239 1981.87 165.967 536.351
lowerback 6.78915 1.16942 0.859415
upperback 1.41215 1.66801 1.7057
thorax -2.37488 0.831439 1.12855
lowerneck -12.2875 -4.88393 -11.2845
upperneck 39.7947 -6.80967 7.55828
head 17.3707 -3.42057 4.27824
rclavicle 4.11484e-014 2.48481e-015
rhumerus -27.7269 1.66483 -89.0919
rradius 38.7637
rwrist -13.7211
rhand -19.2958 8.36205
rfingers 7.12502
rthumb 7.01962 -21.5015
lclavicle 4.11484e-014 2.48481e-015
lhumerus -38.3474 5.219 81.7124
lradius 28.7452
lwrist 0.54437
lhand -19.3163 22.8449
lfingers 7.12502
lthumb 6.9998 52.7092
rfemur -15.9254 -9.47689 28.7927
rtibia 35.6732
rfoot -19.4985 -9.49178
rtoes 9.99974
lfemur -7.6758 9.39903 -16.0785
ltibia 35.4034
lfoot -18.5961 11.3446
ltoes -19.7534
3026
root 8.10911 17.5354 -0.864124 1981.73 166.547 536.074
lowerback 6.8645 1.10192 1.07848
upperback 1.43826 1.59911 1.85588
thorax -2.38732 0.796087 1.16529
lowerneck -12.0683 -4.77667 -11.2953
upperneck 39.6746 -6.6394 7.47817
head 17.2149 -3.36838 4.26797
rclavicle -1.65364e-014 -3.8763e-015
rhumerus -27.5955 1.74361 -88.993
rradius 38.4985
rwrist -13.6603
rhand -19.1962 8.57139
rfingers 7.12502
rthumb 7.11572 -21.289
lclavicle -1.65364e-014 -3.8763e-015
lhumerus -38.2313 5.6981 81.5264
lradius 28.8224
lwrist 0.37178
lhand -18.9512 22.6862
lfingers 7.12502
lthumb 7.35222 52.5385
rfemur -15.6361 -8.96355 29.1554
rtibia 35.5259
rfoot -19.824 -9.27729
rtoes 11.9823
lfemur -7.80017 9.80417 -15.663
ltibia 36.0672
lfoot -18.7642 11.0422
ltoes -18.0896
